<svg xmlns="http://www.w3.org/2000/svg" width="37.323" height="25" viewBox="0 0 37.323 25"><defs><style>.a{fill:#ccc;}</style></defs><path class="a" d="M39,21.026H35.7V18.985a.787.787,0,0,0-.785-.785A36.3,36.3,0,0,0,21.1,20.947,35.424,35.424,0,0,0,7.288,18.2a.787.787,0,0,0-.785.785v2.041H3.285a.787.787,0,0,0-.785.785v20.6a.787.787,0,0,0,.785.785H39.038a.787.787,0,0,0,.785-.785V21.771A.847.847,0,0,0,39,21.026ZM21.927,41.277V22.321a34.757,34.757,0,0,1,12.284-2.59V38.8A35.329,35.329,0,0,0,21.927,41.277ZM8.112,19.731a34.547,34.547,0,0,1,12.245,2.59V41.277A35.51,35.51,0,0,0,8.073,38.8V19.731ZM4.031,22.556H6.582V39.589a.787.787,0,0,0,.785.785,34.371,34.371,0,0,1,9.184,1.3H4.031ZM38.254,41.63H25.734a34.371,34.371,0,0,1,9.184-1.3.787.787,0,0,0,.785-.785V22.556h2.551Z" transform="translate(-2.5 -18.2)"/><path class="a" d="M23.062,32.286a33.008,33.008,0,0,1,6.162,1.256.5.5,0,0,0,.235.039.844.844,0,0,0,.746-.549.769.769,0,0,0-.51-.942,36.68,36.68,0,0,0-6.436-1.3.816.816,0,0,0-.863.667A.777.777,0,0,0,23.062,32.286Z" transform="translate(-14.585 -25.85)"/><path class="a" d="M29.695,41.49a36.681,36.681,0,0,0-6.436-1.3.772.772,0,0,0-.2,1.531,33.009,33.009,0,0,1,6.162,1.256.5.5,0,0,0,.235.039.784.784,0,0,0,.235-1.531Z" transform="translate(-14.585 -31.561)"/><path class="a" d="M29.695,50.99a36.681,36.681,0,0,0-6.436-1.3.772.772,0,0,0-.2,1.531,33.008,33.008,0,0,1,6.162,1.256.5.5,0,0,0,.235.039.784.784,0,0,0,.235-1.531Z" transform="translate(-14.585 -37.332)"/><path class="a" d="M29.695,60.39a36.681,36.681,0,0,0-6.436-1.3.772.772,0,0,0-.2,1.531,33.008,33.008,0,0,1,6.162,1.256.5.5,0,0,0,.235.039.784.784,0,0,0,.235-1.531Z" transform="translate(-14.585 -43.043)"/><path class="a" d="M64.6,30.695a36.681,36.681,0,0,0-6.436,1.3.769.769,0,0,0-.51.942.8.8,0,0,0,.746.549.5.5,0,0,0,.235-.039A38.147,38.147,0,0,1,64.8,32.186a.737.737,0,0,0,.667-.863A.794.794,0,0,0,64.6,30.695Z" transform="translate(-35.989 -25.789)"/><path class="a" d="M64.6,40.181a35.975,35.975,0,0,0-6.436,1.3.769.769,0,0,0-.51.942.8.8,0,0,0,.746.549.5.5,0,0,0,.235-.039A36.5,36.5,0,0,1,64.8,41.673a.752.752,0,1,0-.2-1.491Z" transform="translate(-35.989 -31.547)"/><path class="a" d="M64.6,49.595a36.061,36.061,0,0,0-6.436,1.334.769.769,0,0,0-.51.942.8.8,0,0,0,.746.549.5.5,0,0,0,.235-.039A36.5,36.5,0,0,1,64.8,51.125a.737.737,0,0,0,.667-.863A.791.791,0,0,0,64.6,49.595Z" transform="translate(-35.989 -37.271)"/><path class="a" d="M64.6,59.095a35.975,35.975,0,0,0-6.436,1.3.769.769,0,0,0-.51.942.8.8,0,0,0,.746.549.5.5,0,0,0,.235-.039A36.5,36.5,0,0,1,64.8,60.586a.737.737,0,0,0,.667-.863A.794.794,0,0,0,64.6,59.095Z" transform="translate(-35.989 -43.043)"/></svg>