<svg xmlns="http://www.w3.org/2000/svg" width="15.844" height="20" viewBox="0 0 15.844 20"><defs><style>.a{fill:#2f2f2f;}</style></defs><g transform="translate(0 0)"><path class="a" d="M24.744,5.32H11.235a.389.389,0,0,0-.131.026l-.03.011a.4.4,0,0,0-.1.071s0,.007-.007.011a.206.206,0,0,0-.049.064c-.007.011-.007.022-.015.034s-.007.019-.011.03a.368.368,0,0,0-.026.127V22.907a2.417,2.417,0,0,0,2.413,2.413H25.58A1.128,1.128,0,0,0,26.7,24.2V7.28A1.962,1.962,0,0,0,24.744,5.32ZM12.9,7.733V24.526A1.668,1.668,0,0,1,11.609,22.9V6.826A2.6,2.6,0,0,0,12.9,7.61Zm-.963-1.664H24.744a1.2,1.2,0,0,1,1.143.836H13.273A1.94,1.94,0,0,1,11.936,6.069ZM25.955,24.192a.376.376,0,0,1-.375.375H13.648V7.655H25.955Z" transform="translate(-10.86 -5.32)"/><path class="a" d="M23.039,21.645h7.813A.752.752,0,0,0,31.6,20.9V17.579a.752.752,0,0,0-.749-.749H23.039a.752.752,0,0,0-.749.749V20.9A.752.752,0,0,0,23.039,21.645Zm0-4.066h7.813V20.9H23.039Z" transform="translate(-18.007 -12.517)"/></g></svg>