<svg xmlns="http://www.w3.org/2000/svg" width="19.02" height="18.164" viewBox="0 0 19.02 18.164"><defs><style>.a{fill:#a4a3fe;stroke:#ccc;}</style></defs><g transform="translate(-0.49 -1.208)"><g transform="translate(1 1.708)"><path class="a" d="M18.97,8.2a.6.6,0,0,0-.484-.409l-5.492-.8L10.538,2.015a.625.625,0,0,0-1.076,0L7.006,6.991l-5.492.8a.6.6,0,0,0-.332,1.024l3.974,3.874-.938,5.47a.6.6,0,0,0,.871.632L10,16.207l4.912,2.582a.6.6,0,0,0,.871-.632l-.938-5.47,3.974-3.874A.6.6,0,0,0,18.97,8.2Z" transform="translate(-1 -1.708)"/></g></g></svg>